<svg xmlns="http://www.w3.org/2000/svg" width="520" height="360" viewBox="0 0 520 360" role="img" aria-label="Book style rigid box">
  <defs>
    <linearGradient id="bg" x1="0" x2="1" y1="0" y2="1">
      <stop offset="0" stop-color="#fffaf0"/>
      <stop offset="1" stop-color="#e8ded0"/>
    </linearGradient>
    <linearGradient id="linen" x1="0" x2="1" y1="0" y2="1">
      <stop offset="0" stop-color="#f0e7d8"/>
      <stop offset="1" stop-color="#c6b99f"/>
    </linearGradient>
    <filter id="shadow" x="-20%" y="-20%" width="140%" height="160%">
      <feDropShadow dx="0" dy="16" stdDeviation="14" flood-color="#171615" flood-opacity=".2"/>
    </filter>
  </defs>
  <rect width="520" height="360" rx="28" fill="url(#bg)"/>
  <ellipse cx="272" cy="301" rx="160" ry="27" fill="#171615" opacity=".1"/>
  <g filter="url(#shadow)">
    <path d="M86 72 L242 102 L242 285 L86 254 Z" fill="url(#linen)" stroke="#75664e" stroke-width="3"/>
    <path d="M242 102 L429 75 L429 257 L242 285 Z" fill="#e6dccb" stroke="#75664e" stroke-width="3"/>
    <path d="M260 121 L402 102 L402 239 L260 263 Z" fill="#151412" stroke="#100f0d" stroke-width="4"/>
    <path d="M280 140 L383 126 L383 219 L280 237 Z" fill="#26221d" stroke="#070706" stroke-width="4"/>
    <path d="M242 102 L242 285" stroke="#9d8d73" stroke-width="7"/>
    <path d="M108 92 L219 114" stroke="#fffaf0" stroke-opacity=".55" stroke-width="4"/>
    <path d="M289 124 L399 109" stroke="#d6b36b" stroke-width="3"/>
    <rect x="429" y="153" width="28" height="58" rx="4" fill="#171615"/>
  </g>
</svg>
