<svg xmlns="http://www.w3.org/2000/svg" width="520" height="360" viewBox="0 0 520 360" role="img" aria-label="Folding carton box">
  <defs>
    <linearGradient id="bg" x1="0" x2="1" y1="0" y2="1">
      <stop offset="0" stop-color="#fffaf0"/>
      <stop offset="1" stop-color="#e9dfd1"/>
    </linearGradient>
    <linearGradient id="kraft" x1="0" x2="1" y1="0" y2="1">
      <stop offset="0" stop-color="#ead1a7"/>
      <stop offset="1" stop-color="#b2864f"/>
    </linearGradient>
    <filter id="shadow" x="-20%" y="-20%" width="140%" height="160%">
      <feDropShadow dx="0" dy="16" stdDeviation="14" flood-color="#171615" flood-opacity=".22"/>
    </filter>
  </defs>
  <rect width="520" height="360" rx="28" fill="url(#bg)"/>
  <ellipse cx="275" cy="294" rx="168" ry="30" fill="#171615" opacity=".11"/>
  <g filter="url(#shadow)">
    <path d="M145 102 L298 75 L376 132 L222 160 Z" fill="url(#kraft)" stroke="#604625" stroke-width="3"/>
    <path d="M222 160 L376 132 L401 229 L249 266 Z" fill="#d3ad76" stroke="#604625" stroke-width="3"/>
    <path d="M145 102 L222 160 L249 266 L172 203 Z" fill="#b88b53" stroke="#604625" stroke-width="3"/>
    <path d="M376 132 L446 91 L470 189 L401 229 Z" fill="#c09458" stroke="#604625" stroke-width="3"/>
    <path d="M222 160 L251 98 L326 48 L298 75" fill="#edd4a9" stroke="#604625" stroke-width="3"/>
    <path d="M145 102 L105 160 L172 203" fill="#cda36b" stroke="#604625" stroke-width="3"/>
    <path d="M249 266 L329 306 L401 229" fill="#211d17" stroke="#11100e" stroke-width="3"/>
    <path d="M172 203 L249 266 L329 306 L247 239" fill="#312a21" stroke="#11100e" stroke-width="3"/>
    <path d="M224 165 L374 137" stroke="#f7e7c9" stroke-width="4" opacity=".55"/>
  </g>
</svg>
