<svg xmlns="http://www.w3.org/2000/svg" width="240" height="240" viewBox="0 0 240 240">
  <rect width="240" height="240" rx="48" fill="#fff7f0"/>
  <rect x="30" y="126" width="180" height="58" rx="12" fill="#f47a22"/>
  <path d="M71 127c-24-20-24-55 4-73 0 26 19 33 38 15 8 25 39 30 46 60 9 38-23 70-63 68-41-1-69-34-54-76 7 25 23 39 48 42 24 2 43-13 42-36-2-18-16-28-33-35-1 21-15 33-33 35z" fill="#f47a22"/>
  <path d="M66 70c9-22 27-33 49-41-5 18-1 32 15 42 20 12 34 29 38 52" fill="none" stroke="#f47a22" stroke-width="9" stroke-linecap="round" stroke-linejoin="round"/>
  <text x="51" y="166" fill="#151515" font-family="Arial, Helvetica, sans-serif" font-size="34" font-weight="700" letter-spacing="1">GRAPHFI</text>
</svg>
