<svg xmlns="http://www.w3.org/2000/svg" width="520" height="360" viewBox="0 0 520 360" role="img" aria-label="Premium paper finishing samples">
  <defs>
    <linearGradient id="bg" x1="0" x2="1" y1="0" y2="1">
      <stop offset="0" stop-color="#fffaf0"/>
      <stop offset="1" stop-color="#e8ded0"/>
    </linearGradient>
    <linearGradient id="copper" x1="0" x2="1">
      <stop offset="0" stop-color="#b66f3a"/>
      <stop offset=".5" stop-color="#f4c38e"/>
      <stop offset="1" stop-color="#8f542a"/>
    </linearGradient>
    <filter id="shadow" x="-20%" y="-20%" width="140%" height="160%">
      <feDropShadow dx="0" dy="14" stdDeviation="14" flood-color="#171615" flood-opacity=".18"/>
    </filter>
  </defs>
  <rect width="520" height="360" rx="28" fill="url(#bg)"/>
  <ellipse cx="258" cy="292" rx="180" ry="28" fill="#171615" opacity=".09"/>
  <g filter="url(#shadow)">
    <path d="M98 217 L344 129 L417 164 L170 254 Z" fill="#181614" stroke="#11100e" stroke-width="2"/>
    <path d="M98 201 L344 113 L417 148 L170 238 Z" fill="#f4ead9" stroke="#947d59" stroke-width="2"/>
    <path d="M98 185 L344 97 L417 132 L170 222 Z" fill="#d8ccb9" stroke="#947d59" stroke-width="2"/>
    <path d="M98 169 L344 81 L417 116 L170 206 Z" fill="#fffaf0" stroke="#947d59" stroke-width="2"/>
    <path d="M170 206 L417 116 L417 132 L170 222 Z" fill="#e2d6c4"/>
    <path d="M170 222 L417 132 L417 148 L170 238 Z" fill="#c8bca9"/>
    <path d="M170 238 L417 148 L417 164 L170 254 Z" fill="#a99b87"/>
    <path d="M251 135 L302 117 L374 151 L323 170 Z" fill="url(#copper)" opacity=".92"/>
    <path d="M207 151 L247 137 L319 172 L279 187 Z" fill="#f8f2e7"/>
    <path d="M304 171 C322 158 351 165 358 184 C335 178 318 183 304 202 C306 191 305 181 304 171 Z" fill="none" stroke="#c89a57" stroke-width="4"/>
    <path d="M335 158 C342 145 361 143 372 153" fill="none" stroke="#c89a57" stroke-width="4" stroke-linecap="round"/>
  </g>
</svg>
